<svg width="95" height="95" viewBox="0 0 95 95" fill="none" xmlns="http://www.w3.org/2000/svg">
<path d="M8 1.5H87C90.5899 1.5 93.5 4.41015 93.5 8V87C93.5 90.5899 90.5899 93.5 87 93.5H8C4.41015 93.5 1.5 90.5899 1.5 87V8C1.5 4.41015 4.41015 1.5 8 1.5Z" fill="#FFF2D2" stroke="#7B3F00" stroke-width="3"/>
<path d="M26.1172 26.709H16.748L16.6973 22.7734H25.2031C26.6081 22.7734 27.8353 22.5365 28.8848 22.0625C29.9342 21.5885 30.7467 20.9115 31.3223 20.0312C31.9147 19.1341 32.2109 18.0677 32.2109 16.832C32.2109 15.4779 31.9486 14.3776 31.4238 13.5312C30.916 12.668 30.1289 12.0417 29.0625 11.6523C28.013 11.2461 26.6758 11.043 25.0508 11.043H17.8398V44H12.9395V7.03125H25.0508C26.9466 7.03125 28.6393 7.22591 30.1289 7.61523C31.6185 7.98763 32.8796 8.58008 33.9121 9.39258C34.9616 10.1882 35.7572 11.2038 36.2988 12.4395C36.8405 13.6751 37.1113 15.1562 37.1113 16.8828C37.1113 18.4062 36.722 19.7858 35.9434 21.0215C35.1647 22.2402 34.0814 23.2389 32.6934 24.0176C31.3223 24.7962 29.7142 25.2956 27.8691 25.5156L26.1172 26.709ZM25.8887 44H14.8184L17.5859 40.0137H25.8887C27.446 40.0137 28.7663 39.7428 29.8496 39.2012C30.9499 38.6595 31.7878 37.8978 32.3633 36.916C32.9388 35.9173 33.2266 34.7409 33.2266 33.3867C33.2266 32.0156 32.9811 30.8307 32.4902 29.832C31.9993 28.8333 31.2292 28.0632 30.1797 27.5215C29.1302 26.9798 27.776 26.709 26.1172 26.709H19.1348L19.1855 22.7734H28.7324L29.7734 24.1953C31.5508 24.3477 33.0573 24.8555 34.293 25.7188C35.5286 26.5651 36.4681 27.6484 37.1113 28.9688C37.7715 30.2891 38.1016 31.7448 38.1016 33.3359C38.1016 35.638 37.5938 37.5846 36.5781 39.1758C35.5794 40.75 34.166 41.9518 32.3379 42.7812C30.5098 43.5938 28.36 44 25.8887 44ZM62.6367 7.03125V44H57.7363V7.03125H62.6367ZM84.9551 7.03125L69.5938 24.2715L60.9609 33.2344L60.1484 28.0039L66.6484 20.8438L79.0645 7.03125H84.9551ZM80.2324 44L66.5469 25.9727L69.4668 22.0879L86.0723 44H80.2324ZM26.5742 74.502H16.6973V70.5156H26.5742C28.487 70.5156 30.0358 70.2109 31.2207 69.6016C32.4056 68.9922 33.2689 68.1458 33.8105 67.0625C34.3691 65.9792 34.6484 64.7435 34.6484 63.3555C34.6484 62.0859 34.3691 60.8926 33.8105 59.7754C33.2689 58.6582 32.4056 57.7611 31.2207 57.084C30.0358 56.39 28.487 56.043 26.5742 56.043H17.8398V89H12.9395V52.0312H26.5742C29.3672 52.0312 31.7285 52.5137 33.6582 53.4785C35.5879 54.4434 37.0521 55.7806 38.0508 57.4902C39.0495 59.1829 39.5488 61.1211 39.5488 63.3047C39.5488 65.6745 39.0495 67.6973 38.0508 69.373C37.0521 71.0488 35.5879 72.3268 33.6582 73.207C31.7285 74.0703 29.3672 74.502 26.5742 74.502Z" fill="#7B3F00"/>
</svg>
